<svg xmlns="http://www.w3.org/2000/svg" xmlns:xlink="http://www.w3.org/1999/xlink" preserveAspectRatio="xMidYMid" width="16" height="16" viewBox="0 0 16 16">
  <defs>
    <style>
      .cls-1 {
        fill: #fff;
        fill-rule: evenodd;
      }
    </style>
  </defs>
  <path d="M14.663,4.000 L8.987,4.000 L11.226,1.313 C11.262,1.319 11.293,1.333 11.330,1.333 C11.699,1.333 11.997,1.035 11.997,0.666 C11.997,0.299 11.699,-0.001 11.330,-0.001 C10.963,-0.001 10.663,0.299 10.663,0.666 C10.663,0.746 10.683,0.821 10.709,0.892 L8.119,4.000 L7.876,4.000 L5.287,0.892 C5.312,0.821 5.332,0.746 5.332,0.666 C5.332,0.299 5.034,-0.001 4.665,-0.001 C4.298,-0.001 3.998,0.299 3.998,0.666 C3.998,1.035 4.298,1.333 4.665,1.333 C4.702,1.333 4.734,1.319 4.769,1.313 L7.008,4.000 L1.332,4.000 C0.597,4.000 -0.000,4.598 -0.000,5.334 L-0.000,14.671 C-0.000,15.408 0.597,16.005 1.332,16.005 L14.663,16.005 C15.399,16.005 15.996,15.408 15.996,14.671 L15.996,5.334 C15.996,4.598 15.399,4.000 14.663,4.000 ZM11.997,13.337 C11.997,14.074 11.400,14.671 10.663,14.671 L2.666,14.671 C1.930,14.671 1.332,14.074 1.332,13.337 L1.332,6.668 C1.332,5.931 1.930,5.334 2.666,5.334 L10.663,5.334 C11.400,5.334 11.997,5.931 11.997,6.668 L11.997,13.337 ZM13.961,7.377 C13.435,7.377 13.009,6.949 13.009,6.424 C13.009,5.898 13.435,5.472 13.961,5.472 C14.486,5.472 14.912,5.898 14.912,6.424 C14.912,6.949 14.486,7.377 13.961,7.377 Z" class="cls-1"/>
</svg>
