<svg xmlns="http://www.w3.org/2000/svg" xmlns:xlink="http://www.w3.org/1999/xlink" preserveAspectRatio="xMidYMid" width="11.656" height="16" viewBox="0 0 11.656 16">
  <defs>
    <style>
      .cls-1 {
        fill: #fff;
        fill-rule: evenodd;
      }
    </style>
  </defs>
  <path d="M11.564,13.989 C11.744,14.427 11.691,14.940 11.415,15.348 C11.140,15.756 10.681,15.998 10.188,15.998 L1.466,15.998 C0.972,15.998 0.514,15.756 0.238,15.349 C-0.037,14.940 -0.090,14.426 0.096,13.973 L3.155,5.698 L3.155,3.257 C2.575,3.057 2.160,2.510 2.160,1.869 L2.160,1.471 C2.160,0.660 2.824,0.000 3.639,0.000 L8.014,0.000 C8.830,0.000 9.493,0.660 9.493,1.471 L9.493,1.869 C9.493,2.511 9.077,3.058 8.499,3.258 L8.499,5.698 L11.564,13.989 ZM6.703,14.278 C7.185,14.278 7.574,13.890 7.574,13.411 C7.574,12.935 7.185,12.546 6.703,12.546 C6.221,12.546 5.832,12.935 5.832,13.411 C5.832,13.890 6.221,14.278 6.703,14.278 ZM7.217,10.648 C7.217,10.305 6.936,10.024 6.590,10.024 C6.243,10.024 5.961,10.305 5.961,10.648 C5.961,10.992 6.243,11.272 6.590,11.272 C6.936,11.272 7.217,10.992 7.217,10.648 ZM3.956,12.610 C4.236,12.610 4.462,12.387 4.462,12.109 C4.462,11.831 4.236,11.608 3.956,11.608 C3.679,11.608 3.453,11.831 3.453,12.109 C3.453,12.387 3.679,12.610 3.956,12.610 ZM8.515,1.869 L8.515,1.471 C8.515,1.196 8.290,0.973 8.014,0.973 L3.639,0.973 C3.363,0.973 3.139,1.196 3.139,1.471 L3.139,1.869 C3.139,2.143 3.363,2.366 3.639,2.366 L4.129,2.366 L4.133,2.853 L4.133,5.871 L2.992,8.958 L3.037,8.958 C3.037,8.958 7.706,8.882 8.345,8.222 C8.357,8.210 8.367,8.203 8.379,8.192 L7.520,5.871 L7.520,2.366 L8.010,2.366 C8.290,2.366 8.515,2.143 8.515,1.869 ZM5.486,7.744 C5.109,7.744 4.804,7.440 4.804,7.066 C4.804,6.693 5.109,6.389 5.486,6.389 C5.861,6.389 6.167,6.693 6.167,7.066 C6.167,7.440 5.861,7.744 5.486,7.744 Z" class="cls-1"/>
</svg>
