<svg xmlns="http://www.w3.org/2000/svg" xmlns:xlink="http://www.w3.org/1999/xlink" preserveAspectRatio="xMidYMid" width="16" height="15" viewBox="0 0 16 15">
  <defs>
    <style>
      .cls-1 {
        fill: #fff;
        fill-rule: evenodd;
      }
    </style>
  </defs>
  <path d="M13.081,12.070 C13.070,12.113 13.042,12.149 13.004,12.171 C12.979,12.184 12.952,12.192 12.924,12.192 C12.908,12.192 12.892,12.189 12.877,12.185 L7.053,10.426 C7.001,10.410 6.961,10.370 6.945,10.319 C6.930,10.266 6.942,10.210 6.977,10.170 L12.774,3.366 L5.227,9.763 C5.185,9.802 5.125,9.814 5.070,9.797 L0.108,8.232 C0.046,8.212 0.002,8.157 -0.004,8.092 C-0.009,8.027 0.025,7.966 0.084,7.936 L15.762,-0.013 C15.818,-0.042 15.886,-0.035 15.936,0.003 C15.985,0.042 16.007,0.106 15.992,0.168 L13.081,12.070 ZM7.148,11.673 L8.757,12.164 C8.805,12.179 8.844,12.215 8.862,12.262 C8.879,12.308 8.874,12.361 8.846,12.403 L7.237,14.924 C7.206,14.971 7.155,14.999 7.101,14.999 C7.085,14.999 7.070,14.996 7.056,14.992 C6.986,14.972 6.939,14.910 6.939,14.838 L6.939,11.826 C6.939,11.775 6.963,11.727 7.005,11.697 C7.046,11.667 7.099,11.657 7.148,11.673 Z" class="cls-1"/>
</svg>
