<svg xmlns="http://www.w3.org/2000/svg" xmlns:xlink="http://www.w3.org/1999/xlink" preserveAspectRatio="xMidYMid" width="16" height="15.65" viewBox="0 0 16 15.65">
  <defs>
    <style>
      .cls-1 {
        fill: #fff;
        fill-rule: evenodd;
      }
    </style>
  </defs>
  <path d="M15.999,14.547 C15.999,15.194 15.392,15.335 13.300,15.483 C11.882,15.584 10.000,15.639 7.999,15.639 C5.999,15.639 4.116,15.584 2.698,15.483 C0.607,15.335 -0.001,15.194 -0.001,14.547 C-0.001,13.900 0.607,13.759 2.698,13.611 C3.299,13.569 3.987,13.535 4.728,13.510 C3.245,12.220 2.270,10.083 2.270,7.665 C2.270,7.353 2.521,7.100 2.829,7.100 L13.169,7.100 C13.478,7.100 13.728,7.353 13.728,7.665 C13.728,7.964 13.709,8.257 13.680,8.546 C14.343,8.379 15.064,8.648 15.438,9.269 C15.661,9.639 15.728,10.075 15.627,10.496 C15.526,10.917 15.269,11.273 14.902,11.499 C14.648,11.656 14.361,11.737 14.070,11.737 C13.943,11.737 13.815,11.721 13.688,11.690 C13.399,11.619 13.144,11.468 12.938,11.260 C12.517,12.152 11.945,12.918 11.267,13.510 C12.010,13.535 12.699,13.569 13.300,13.611 C15.392,13.759 15.999,13.900 15.999,14.547 ZM13.269,10.605 C13.399,10.820 13.604,10.972 13.847,11.032 C14.089,11.091 14.340,11.052 14.554,10.920 C14.767,10.789 14.917,10.581 14.976,10.336 C15.035,10.091 14.996,9.837 14.866,9.621 C14.597,9.176 14.021,9.035 13.581,9.306 C13.577,9.309 13.572,9.308 13.568,9.311 C13.485,9.744 13.372,10.162 13.229,10.561 C13.242,10.576 13.259,10.587 13.269,10.605 ZM12.591,8.230 L3.408,8.230 C3.628,11.274 5.603,13.665 7.999,13.665 C10.396,13.665 12.371,11.274 12.591,8.230 ZM9.775,5.460 C9.825,5.598 9.801,5.749 9.712,5.865 C9.632,5.969 9.508,6.030 9.379,6.030 L9.348,6.029 C9.115,6.007 8.799,5.866 8.644,5.542 C8.447,5.129 8.571,4.586 9.026,3.881 C9.054,3.838 9.080,3.796 9.104,3.756 L9.130,3.713 C9.480,3.123 9.419,2.908 9.411,2.886 C9.412,2.887 9.431,2.895 9.457,2.903 C9.350,2.870 9.261,2.797 9.208,2.698 C9.154,2.597 9.142,2.482 9.174,2.373 C9.238,2.156 9.479,2.022 9.697,2.086 C9.759,2.105 10.065,2.215 10.202,2.591 C10.350,2.999 10.231,3.517 9.839,4.174 C9.533,4.745 9.773,5.453 9.775,5.460 ZM7.423,5.340 C7.475,5.486 7.450,5.647 7.356,5.771 C7.271,5.881 7.138,5.947 7.001,5.947 L6.963,5.945 C6.716,5.922 6.243,5.758 6.019,5.288 C5.740,4.705 5.944,3.874 6.625,2.818 C6.678,2.737 6.726,2.659 6.771,2.584 L6.793,2.548 C7.382,1.556 7.327,1.123 7.276,0.983 C7.242,0.888 7.181,0.858 7.179,0.857 C6.961,0.793 6.825,0.540 6.896,0.300 C6.965,0.065 7.219,-0.074 7.453,-0.005 C7.500,0.009 7.928,0.148 8.118,0.671 C8.329,1.253 8.137,2.050 7.546,3.040 C6.990,4.079 7.418,5.327 7.423,5.340 Z" class="cls-1"/>
</svg>
