<svg width="168" height="111" viewBox="0 0 168 111" xmlns="http://www.w3.org/2000/svg" xmlns:xlink="http://www.w3.org/1999/xlink"><view id="icon-arrow-left" viewBox="0 0 50 75"/><svg preserveAspectRatio="xMidYMid" width="50" height="75" viewBox="-10 -10 50 75"><defs><style>.acls-1{fill:#fff;opacity:.5;fill-rule:evenodd}</style></defs><path d="M28.519 54.985L.004 27.499 28.519.015l1.477 1.509L3.05 27.499l26.946 25.977-1.477 1.509z" class="acls-1"/></svg><view id="icon-arrow-right" viewBox="50 0 50 75"/><svg preserveAspectRatio="xMidYMid" width="50" height="75" viewBox="-10 -10 50 75" x="50"><defs><style>.bcls-1{fill:#fff;opacity:.5;fill-rule:evenodd}</style></defs><path d="M1.481 54.985l28.515-27.486L1.481.015.004 1.524 26.95 27.499.004 53.476l1.477 1.509z" class="bcls-1"/></svg><view id="icon-chemistry" viewBox="100 0 31.66 36"/><svg preserveAspectRatio="xMidYMid" width="31.66" height="36" viewBox="-10 -10 31.66 36" x="100"><defs><style>.ccls-1{fill:#fff;fill-rule:evenodd}</style></defs><path d="M11.564 13.989c.18.438.127.951-.149 1.359-.275.408-.734.65-1.227.65H1.466a1.48 1.48 0 0 1-1.228-.649 1.464 1.464 0 0 1-.142-1.376l3.059-8.275V3.257c-.58-.2-.995-.747-.995-1.388v-.398C2.16.66 2.824 0 3.639 0h4.375c.816 0 1.479.66 1.479 1.471v.398c0 .642-.416 1.189-.994 1.389v2.44l3.065 8.291zm-4.861.289a.868.868 0 0 0 .871-.867.869.869 0 0 0-.871-.865.869.869 0 0 0-.871.865c0 .479.389.867.871.867zm.514-3.63a.628.628 0 1 0-1.256 0 .627.627 0 0 0 1.256 0zM3.956 12.61c.28 0 .506-.223.506-.501a.502.502 0 0 0-.506-.501.502.502 0 1 0 0 1.002zM8.515 1.869v-.398a.5.5 0 0 0-.501-.498H3.639a.5.5 0 0 0-.5.498v.398c0 .274.224.497.5.497h.49l.004.487v3.018L2.992 8.958h.045s4.669-.076 5.308-.736c.012-.012.022-.019.034-.03L7.52 5.871V2.366h.49a.5.5 0 0 0 .505-.497zM5.486 7.744a.68.68 0 0 1-.682-.678.68.68 0 0 1 .682-.677.68.68 0 0 1 .681.677.68.68 0 0 1-.681.678z" class="ccls-1"/></svg><view id="icon-coffee" viewBox="0 75 36 35.65"/><svg preserveAspectRatio="xMidYMid" width="36" height="35.65" viewBox="-10 -10 36 35.65" y="75"><defs><style>.dcls-1{fill:#fff;fill-rule:evenodd}</style></defs><path d="M15.999 14.547c0 .647-.607.788-2.699.936-1.418.101-3.3.156-5.301.156-2 0-3.883-.055-5.301-.156-2.091-.148-2.699-.289-2.699-.936s.608-.788 2.699-.936a57.383 57.383 0 0 1 2.03-.101C3.245 12.22 2.27 10.083 2.27 7.665c0-.312.251-.565.559-.565h10.34c.309 0 .559.253.559.565 0 .299-.019.592-.048.881a1.593 1.593 0 0 1 1.758.723c.223.37.29.806.189 1.227a1.61 1.61 0 0 1-1.557 1.241 1.586 1.586 0 0 1-1.132-.477 6.866 6.866 0 0 1-1.671 2.25c.743.025 1.432.059 2.033.101 2.092.148 2.699.289 2.699.936zm-2.73-3.942c.13.215.335.367.578.427a.94.94 0 0 0 1.129-.696.948.948 0 0 0-.11-.715.93.93 0 0 0-1.285-.315c-.004.003-.009.002-.013.005a8.381 8.381 0 0 1-.339 1.25c.013.015.03.026.04.044zm-.678-2.375H3.408c.22 3.044 2.195 5.435 4.591 5.435 2.397 0 4.372-2.391 4.592-5.435zM9.775 5.46a.424.424 0 0 1-.396.57l-.031-.001a.883.883 0 0 1-.704-.487c-.197-.413-.073-.956.382-1.661l.078-.125.026-.043c.35-.59.289-.805.281-.827a.423.423 0 0 1-.203-.188.428.428 0 0 1-.034-.325.43.43 0 0 1 .523-.287.81.81 0 0 1 .505.505c.148.408.029.926-.363 1.583-.306.571-.066 1.279-.064 1.286zm-2.352-.12a.453.453 0 0 1-.422.607l-.038-.002c-.247-.023-.72-.187-.944-.657-.279-.583-.075-1.414.606-2.47.053-.081.101-.159.146-.234l.022-.036c.589-.992.534-1.425.483-1.565-.034-.095-.095-.125-.097-.126a.453.453 0 0 1 .274-.862c.047.014.475.153.665.676.211.582.019 1.379-.572 2.369-.556 1.039-.128 2.287-.123 2.3z" class="dcls-1"/></svg><view id="icon-plane" viewBox="36 75 36 35"/><svg preserveAspectRatio="xMidYMid" width="36" height="35" viewBox="-10 -10 36 35" x="36" y="75"><defs><style>.ecls-1{fill:#fff;fill-rule:evenodd}</style></defs><path d="M13.081 12.07a.164.164 0 0 1-.157.122.184.184 0 0 1-.047-.007l-5.824-1.759a.163.163 0 0 1-.108-.107.16.16 0 0 1 .032-.149l5.797-6.804-7.547 6.397a.16.16 0 0 1-.157.034L.108 8.232a.16.16 0 0 1-.024-.296L15.762-.013a.164.164 0 0 1 .174.016.162.162 0 0 1 .056.165L13.081 12.07zm-5.933-.397l1.609.491a.165.165 0 0 1 .105.098.157.157 0 0 1-.016.141l-1.609 2.521a.164.164 0 0 1-.136.075.163.163 0 0 1-.045-.007.16.16 0 0 1-.117-.154v-3.012c0-.051.024-.099.066-.129a.159.159 0 0 1 .143-.024z" class="ecls-1"/></svg><view id="icon-tvset" viewBox="131.66 0 36 36"/><svg preserveAspectRatio="xMidYMid" width="36" height="36" viewBox="-10 -10 36 36" x="131.66"><defs><style>.fcls-1{fill:#fff;fill-rule:evenodd}</style></defs><path d="M14.663 4H8.987l2.239-2.687c.036.006.067.02.104.02a.666.666 0 1 0-.667-.667c0 .08.02.155.046.226L8.119 4h-.243L5.287.892a.678.678 0 0 0 .045-.226.667.667 0 1 0-.667.667c.037 0 .069-.014.104-.02L7.008 4H1.332C.597 4 0 4.598 0 5.334v9.337c0 .737.597 1.334 1.332 1.334h13.331c.736 0 1.333-.597 1.333-1.334V5.334c0-.736-.597-1.334-1.333-1.334zm-2.666 9.337c0 .737-.597 1.334-1.334 1.334H2.666a1.334 1.334 0 0 1-1.334-1.334V6.668c0-.737.598-1.334 1.334-1.334h7.997c.737 0 1.334.597 1.334 1.334v6.669zm1.964-5.96a.953.953 0 0 1 0-1.905.951.951 0 0 1 0 1.905z" class="fcls-1"/></svg></svg>