<?xml version="1.0" encoding="utf-8"?><svg xmlns="http://www.w3.org/2000/svg" preserveAspectRatio="xMidYMid" width="31.66" height="36" viewBox="-10 -10 31.66 36"><defs><style>.ccls-1{fill:#fff;fill-rule:evenodd}</style></defs><path d="M11.564 13.989c.18.438.127.951-.149 1.359-.275.408-.734.65-1.227.65H1.466a1.48 1.48 0 0 1-1.228-.649 1.464 1.464 0 0 1-.142-1.376l3.059-8.275V3.257c-.58-.2-.995-.747-.995-1.388v-.398C2.16.66 2.824 0 3.639 0h4.375c.816 0 1.479.66 1.479 1.471v.398c0 .642-.416 1.189-.994 1.389v2.44l3.065 8.291zm-4.861.289a.868.868 0 0 0 .871-.867.869.869 0 0 0-.871-.865.869.869 0 0 0-.871.865c0 .479.389.867.871.867zm.514-3.63a.628.628 0 1 0-1.256 0 .627.627 0 0 0 1.256 0zM3.956 12.61c.28 0 .506-.223.506-.501a.502.502 0 0 0-.506-.501.502.502 0 1 0 0 1.002zM8.515 1.869v-.398a.5.5 0 0 0-.501-.498H3.639a.5.5 0 0 0-.5.498v.398c0 .274.224.497.5.497h.49l.004.487v3.018L2.992 8.958h.045s4.669-.076 5.308-.736c.012-.012.022-.019.034-.03L7.52 5.871V2.366h.49a.5.5 0 0 0 .505-.497zM5.486 7.744a.68.68 0 0 1-.682-.678.68.68 0 0 1 .682-.677.68.68 0 0 1 .681.677.68.68 0 0 1-.681.678z" class="ccls-1"/></svg>