<?xml version="1.0" encoding="utf-8"?><svg xmlns="http://www.w3.org/2000/svg" preserveAspectRatio="xMidYMid" width="36" height="35" viewBox="-10 -10 36 35"><defs><style>.ecls-1{fill:#fff;fill-rule:evenodd}</style></defs><path d="M13.081 12.07a.164.164 0 0 1-.157.122.184.184 0 0 1-.047-.007l-5.824-1.759a.163.163 0 0 1-.108-.107.16.16 0 0 1 .032-.149l5.797-6.804-7.547 6.397a.16.16 0 0 1-.157.034L.108 8.232a.16.16 0 0 1-.024-.296L15.762-.013a.164.164 0 0 1 .174.016.162.162 0 0 1 .056.165L13.081 12.07zm-5.933-.397l1.609.491a.165.165 0 0 1 .105.098.157.157 0 0 1-.016.141l-1.609 2.521a.164.164 0 0 1-.136.075.163.163 0 0 1-.045-.007.16.16 0 0 1-.117-.154v-3.012c0-.051.024-.099.066-.129a.159.159 0 0 1 .143-.024z" class="ecls-1"/></svg>