<?xml version="1.0" encoding="utf-8"?><svg xmlns="http://www.w3.org/2000/svg" preserveAspectRatio="xMidYMid" width="36" height="36" viewBox="-10 -10 36 36"><defs><style>.fcls-1{fill:#fff;fill-rule:evenodd}</style></defs><path d="M14.663 4H8.987l2.239-2.687c.036.006.067.02.104.02a.666.666 0 1 0-.667-.667c0 .08.02.155.046.226L8.119 4h-.243L5.287.892a.678.678 0 0 0 .045-.226.667.667 0 1 0-.667.667c.037 0 .069-.014.104-.02L7.008 4H1.332C.597 4 0 4.598 0 5.334v9.337c0 .737.597 1.334 1.332 1.334h13.331c.736 0 1.333-.597 1.333-1.334V5.334c0-.736-.597-1.334-1.333-1.334zm-2.666 9.337c0 .737-.597 1.334-1.334 1.334H2.666a1.334 1.334 0 0 1-1.334-1.334V6.668c0-.737.598-1.334 1.334-1.334h7.997c.737 0 1.334.597 1.334 1.334v6.669zm1.964-5.96a.953.953 0 0 1 0-1.905.951.951 0 0 1 0 1.905z" class="fcls-1"/></svg>