<?xml version="1.0" encoding="utf-8"?><svg xmlns="http://www.w3.org/2000/svg" preserveAspectRatio="xMidYMid" width="36" height="35.65" viewBox="-10 -10 36 35.65"><defs><style>.dcls-1{fill:#fff;fill-rule:evenodd}</style></defs><path d="M15.999 14.547c0 .647-.607.788-2.699.936-1.418.101-3.3.156-5.301.156-2 0-3.883-.055-5.301-.156-2.091-.148-2.699-.289-2.699-.936s.608-.788 2.699-.936a57.383 57.383 0 0 1 2.03-.101C3.245 12.22 2.27 10.083 2.27 7.665c0-.312.251-.565.559-.565h10.34c.309 0 .559.253.559.565 0 .299-.019.592-.048.881a1.593 1.593 0 0 1 1.758.723c.223.37.29.806.189 1.227a1.61 1.61 0 0 1-1.557 1.241 1.586 1.586 0 0 1-1.132-.477 6.866 6.866 0 0 1-1.671 2.25c.743.025 1.432.059 2.033.101 2.092.148 2.699.289 2.699.936zm-2.73-3.942c.13.215.335.367.578.427a.94.94 0 0 0 1.129-.696.948.948 0 0 0-.11-.715.93.93 0 0 0-1.285-.315c-.004.003-.009.002-.013.005a8.381 8.381 0 0 1-.339 1.25c.013.015.03.026.04.044zm-.678-2.375H3.408c.22 3.044 2.195 5.435 4.591 5.435 2.397 0 4.372-2.391 4.592-5.435zM9.775 5.46a.424.424 0 0 1-.396.57l-.031-.001a.883.883 0 0 1-.704-.487c-.197-.413-.073-.956.382-1.661l.078-.125.026-.043c.35-.59.289-.805.281-.827a.423.423 0 0 1-.203-.188.428.428 0 0 1-.034-.325.43.43 0 0 1 .523-.287.81.81 0 0 1 .505.505c.148.408.029.926-.363 1.583-.306.571-.066 1.279-.064 1.286zm-2.352-.12a.453.453 0 0 1-.422.607l-.038-.002c-.247-.023-.72-.187-.944-.657-.279-.583-.075-1.414.606-2.47.053-.081.101-.159.146-.234l.022-.036c.589-.992.534-1.425.483-1.565-.034-.095-.095-.125-.097-.126a.453.453 0 0 1 .274-.862c.047.014.475.153.665.676.211.582.019 1.379-.572 2.369-.556 1.039-.128 2.287-.123 2.3z" class="dcls-1"/></svg>