<svg xmlns="http://www.w3.org/2000/svg" xmlns:xlink="http://www.w3.org/1999/xlink" viewBox="0 0 89 20"><defs><path id="a" d="M-1 0h90v20H-1z"/></defs><clipPath id="b"><use xlink:href="#a" overflow="visible"/></clipPath><g clip-path="url(#b)"><defs><path id="c" d="M10 9.3c.3 0 .6-.3.6-.6s-.3-.6-.6-.6-.6.3-.6.6c0 .4.3.6.6.6zm.5 3.8H12c.6 0 .8-.4.6-.9l-.9-1.9v-.1s-.1-.8-.4-2.1c-.3-1.3-.8-2-.8-2-.2-.4-.7-.4-.9 0 0 0-.4.4-.8 2s-.4 2.1-.4 2.1v.2l-.9 1.9c-.3.5 0 .9.6.9h1.6l.3.3c.1.1.3.1.4 0l.1-.4zM0 17.4c0-.3.1-.6.3-1L8.5 2.1c.8-1.4 2.1-1.4 3 0l8.2 14.3c.2.3.3.7.3 1v.4c-.1.7-.7 1.2-1.6 1.2-.4-.5-1-.8-1.7-.8-.2 0-.4 0-.5.1-.3-.6-.9-1.1-1.6-1.1-.7 0-1.3.4-1.6 1-2.3-.8-2.7-4-2.7-4H10v2.4-2.4h-.3s-.4 3.2-2.7 4c-.3-.6-.9-1-1.6-1-.7 0-1.3.4-1.6 1.1-.2 0-.4-.1-.5-.1-.7 0-1.3.3-1.7.8-1-.1-1.5-.5-1.6-1.3v-.3z"/></defs><clipPath id="d"><use xlink:href="#c" overflow="visible"/></clipPath><g clip-path="url(#d)"><defs><path id="e" d="M0 1h20v18H0z"/></defs><clipPath id="f"><use xlink:href="#e" overflow="visible"/></clipPath><g clip-path="url(#f)"><defs><path id="g" d="M0 1h20v18H0z"/></defs><clipPath id="h"><use xlink:href="#g" overflow="visible"/></clipPath><g clip-path="url(#h)"><defs><path id="i" d="M0 0h20v19H0z"/></defs><clipPath id="j"><use xlink:href="#i" overflow="visible"/></clipPath><path clip-path="url(#j)" fill="#FF4E50" d="M-5-4h30v28H-5z"/></g></g></g></g><defs><path id="k" d="M-1 0h90v20H-1z"/></defs><clipPath id="l"><use xlink:href="#k" overflow="visible"/></clipPath><g clip-path="url(#l)"><defs><path id="m" d="M78.1 6c0-2.1 1.7-3.9 3.8-3.9 2.1 0 3.8 1.8 3.8 3.9S84 9.8 81.9 9.8c-2.1 0-3.8-1.7-3.8-3.8zM76 6c0 3.3 2.7 6 6 6s6-2.6 6-6c0-3.3-2.7-6-6-6s-6 2.7-6 6zm-7 5.5c0 .2.2.3.3.3h1.5c.2 0 .3-.2.3-.3V2.2h2.5c.3 0 .4-.2.4-.3V.5c0-.2-.1-.3-.3-.3h-7.3c-.2 0-.3.1-.3.3v1.4c0 .2.1.3.3.3H69v9.3zm-13.8 0c0 .2.1.3.3.3h6.8c.2 0 .3-.2.3-.3v-1.4c0-.2-.1-.3-.3-.3h-4.9V6.9h4.1c.2 0 .3-.1.3-.3V5.2c0-.2-.2-.3-.3-.3h-4.1V2.2h4.9c.2 0 .3-.1.3-.3V.5c0-.2-.1-.3-.3-.3h-6.8c-.2 0-.3.1-.3.3v11zm-10.7-6V2.2h2.7c.9 0 1.7.7 1.7 1.6 0 .9-.8 1.7-1.7 1.7h-2.7zm-2.2 6c0 .2.1.3.3.3h1.5c.2 0 .3-.2.3-.3V7.3h1.8l2.2 4.4c0 .1.1.2.3.2h1.8c.3 0 .4-.3.3-.5l-2.3-4.2C50 6.6 51 5.4 51 3.8c0-2-1.6-3.6-3.6-3.6h-4.8c-.2 0-.3.1-.3.3v11zM31.9 7.9l1.6-3.7 1.7 3.7h-3.3zm-3.6 3.9h1.5c.3 0 .4-.2.5-.3l.8-1.8h5l.8 1.8c.1.2.2.3.5.3h1.5c.2 0 .4-.2.3-.4L34 .2c0-.1-.1-.2-.3-.2h-.2c-.2 0-.2.1-.3.2L28 11.4c-.1.2.1.4.3.4z"/></defs><clipPath id="n"><use xlink:href="#m" overflow="visible"/></clipPath><g clip-path="url(#n)"><defs><path id="o" d="M28 0h60v12H28z"/></defs><clipPath id="p"><use xlink:href="#o" overflow="visible"/></clipPath><g clip-path="url(#p)"><defs><path id="q" d="M28 0h60v12H28z"/></defs><clipPath id="r"><use xlink:href="#q" overflow="visible"/></clipPath><g clip-path="url(#r)"><defs><path id="s" d="M27 0h61v12H27z"/></defs><clipPath id="t"><use xlink:href="#s" overflow="visible"/></clipPath><path clip-path="url(#t)" fill="#FF4E50" d="M23-5h70v22H23z"/></g></g></g></g><defs><path id="u" d="M-1 0h90v20H-1z"/></defs><clipPath id="v"><use xlink:href="#u" overflow="visible"/></clipPath><path clip-path="url(#v)" fill="none" stroke="#FF4E50" stroke-width=".5" stroke-miterlimit="10" d="M86.8 19.8s.1 0 0 0l.1-3.7H88h-2.4 1.1v3.7zm-7 .1c.1 0 .1 0 0 0l.1-3.6 2.8 3.7h.1v-3.8 3.6L79.9 16h-.1v3.9zm-5.2 0h2.2-2.2l.1-1.9h1.9-1.9v-1.7h2.1-2.2v3.6zm-7.4-.1c0 .1 0 .1 0 0 .1.1.1.1 0 0l.8-3.6 1.2 3.7h.1l1.1-3.7.8 3.6-.7-3.8h-.1l-1.2 3.7-1.1-3.7H68l-.8 3.8zm-5.1-1.3v-2.3h1.1c.6 0 1.1.5 1.1 1.1 0 .6-.5 1.1-1.1 1.1h-1.1zm-.1 1.4c.1 0 .1 0 0 0l.1-1.3h1.1c.7 0 1.2-.6 1.2-1.2 0-.7-.6-1.2-1.2-1.2h-1.1v3.7zM54.9 18c0-1 .8-1.9 1.9-1.9s1.9.8 1.9 1.9c0 1-.8 1.8-1.9 1.8s-1.9-.8-1.9-1.8zm-.1 0c0 1.1.9 1.9 2 1.9s2-.9 2-1.9c0-1.1-.9-2-2-2s-2 .9-2 2zm-4.6 1.9h2-2l.1-3.7v3.7zm-5.3 0s.1 0 0 0h2.2-2.2L45 18h1.9H45v-1.7h2.1H45v3.6zm-4.7.1s.1 0 0 0l1.7-3.8-1.6 3.7-1.6-3.7 1.5 3.8zm-6.3-.1h2.2-2.2L34 18h1.9H34v-1.7h2.1-2.2v3.6zm-5.8-.1v-3.6h1c1 0 1.8.8 1.8 1.8s-.8 1.8-1.8 1.8h-1zm-.1.1h1.1c1.1 0 1.9-.8 1.9-1.9 0-1-.9-1.9-1.9-1.9H28v3.8z"/><g><defs><path id="w" d="M-1 0h90v20H-1z"/></defs><clipPath id="x"><use xlink:href="#w" overflow="visible"/></clipPath><g clip-path="url(#x)"><defs><path id="y" d="M86.8 19.8s.1 0 0 0l.1-3.7H88h-2.4 1.1v3.7zm-7 .1c.1 0 .1 0 0 0l.1-3.6 2.8 3.7h.1v-3.8 3.6L79.9 16h-.1v3.9zm-5.2 0h2.2-2.2l.1-1.9h1.9-1.9v-1.7h2.1-2.2v3.6zm-7.4-.1c0 .1 0 .1 0 0 .1.1.1.1 0 0l.8-3.6 1.2 3.7h.1l1.1-3.7.8 3.6-.7-3.8h-.1l-1.2 3.7-1.1-3.7H68l-.8 3.8zm-5.1-1.3v-2.3h1.1c.6 0 1.1.5 1.1 1.1 0 .6-.5 1.1-1.1 1.1h-1.1zm-.1 1.4c.1 0 .1 0 0 0l.1-1.3h1.1c.7 0 1.2-.6 1.2-1.2 0-.7-.6-1.2-1.2-1.2h-1.1v3.7zM54.9 18c0-1 .8-1.9 1.9-1.9 1 0 1.9.8 1.9 1.9 0 1-.8 1.8-1.9 1.8-1 0-1.9-.8-1.9-1.8zm-.1 0c0 1.1.9 1.9 2 1.9s2-.9 2-1.9c0-1.1-.9-2-2-2s-2 .9-2 2zm-4.6 1.9h2-2l.1-3.7v3.7zm-5.3 0s.1 0 0 0h2.2-2.2L45 18h1.9H45v-1.7h2.1H45v3.6zm-4.7.1s.1 0 0 0l1.7-3.8-1.6 3.7-1.6-3.7 1.5 3.8zm-6.3-.1h2.2-2.2L34 18h1.9H34v-1.7h2.1-2.2v3.6zm-5.8-.1v-3.6h1c1 0 1.8.8 1.8 1.8s-.8 1.8-1.8 1.8h-1zm-.1.1h1.1c1.1 0 1.9-.8 1.9-1.9 0-1-.9-1.9-1.9-1.9H28v3.8z"/></defs><clipPath id="z"><use xlink:href="#y" overflow="visible"/></clipPath><g clip-path="url(#z)"><defs><path id="A" d="M28 15h61v5H28z"/></defs><clipPath id="B"><use xlink:href="#A" overflow="visible"/></clipPath><g clip-path="url(#B)"><defs><path id="C" d="M28 15h61v5H28z"/></defs><clipPath id="D"><use xlink:href="#C" overflow="visible"/></clipPath><path clip-path="url(#D)" fill="none" stroke="#FF4E50" stroke-width=".5" stroke-miterlimit="10" d="M86.8 19.8s.1 0 0 0l.1-3.7H88h-2.4 1.1v3.7zm-7 .1c.1 0 .1 0 0 0l.1-3.6 2.8 3.7h.1v-3.8 3.6L79.9 16h-.1v3.9zm-5.2 0h2.2-2.2l.1-1.9h1.9-1.9v-1.7h2.1-2.2v3.6zm-7.4-.1c0 .1 0 .1 0 0 .1.1.1.1 0 0l.8-3.6 1.2 3.7h.1l1.1-3.7.8 3.6-.7-3.8h-.1l-1.2 3.7-1.1-3.7H68l-.8 3.8zm-5.1-1.3v-2.3h1.1c.6 0 1.1.5 1.1 1.1 0 .6-.5 1.1-1.1 1.1h-1.1zm-.1 1.4c.1 0 .1 0 0 0l.1-1.3h1.1c.7 0 1.2-.6 1.2-1.2 0-.7-.6-1.2-1.2-1.2h-1.1v3.7zM54.9 18c0-1 .8-1.9 1.9-1.9s1.9.8 1.9 1.9c0 1-.8 1.8-1.9 1.8s-1.9-.8-1.9-1.8zm-.1 0c0 1.1.9 1.9 2 1.9s2-.9 2-1.9c0-1.1-.9-2-2-2s-2 .9-2 2zm-4.6 1.9h2-2l.1-3.7v3.7zm-5.3 0s.1 0 0 0h2.2-2.2L45 18h1.9H45v-1.7h2.1H45v3.6zm-4.7.1s.1 0 0 0l1.7-3.8-1.6 3.7-1.6-3.7 1.5 3.8zm-6.3-.1h2.2-2.2L34 18h1.9H34v-1.7h2.1-2.2v3.6zm-5.8-.1v-3.6h1c1 0 1.8.8 1.8 1.8s-.8 1.8-1.8 1.8h-1zm-.1.1h1.1c1.1 0 1.9-.8 1.9-1.9 0-1-.9-1.9-1.9-1.9H28v3.8z"/></g><g clip-path="url(#B)"><defs><path id="E" d="M28 16h60v4H28z"/></defs><clipPath id="F"><use xlink:href="#E" overflow="visible"/></clipPath><g clip-path="url(#F)"><defs><path id="G" d="M28 15h61v5H28z"/></defs><clipPath id="H"><use xlink:href="#G" overflow="visible"/></clipPath><path clip-path="url(#H)" fill="#FF4E50" d="M23 11h70v14H23z"/></g></g></g></g></g></svg>